<?xml version="1.0" encoding="utf-8"?>
<!-- Generator: Adobe Illustrator 23.0.0, SVG Export Plug-In . SVG Version: 6.00 Build 0)  -->
<svg version="1.1" xmlns="http://www.w3.org/2000/svg" xmlns:xlink="http://www.w3.org/1999/xlink" x="0px" y="0px"
	 viewBox="0 0 171.6 81.2" style="enable-background:new 0 0 171.6 81.2;" xml:space="preserve">
<style type="text/css">
	.st0{display:none;}
	.st1{display:inline;}
	.st2{fill:#00ADD8;}
	.st3{fill:#0083C1;}
	.st4{fill:#707C7C;}
	.st5{fill:#FFFFFF;}
</style>
<g id="Layer_1" class="st0">
	<title>site-logo</title>
	<g class="st1">
		<path class="st2" d="M156.3,26c0.6,0.1,1.1-0.3,1.1-0.9c0.1-0.5-0.3-1.1-0.9-1.1c-0.5-0.1-1.1,0.3-1.1,0.9
			C155.4,25.4,155.8,25.9,156.3,26z M151.6,60c0.7,0,1.4,0,2.1-0.1c0.3,0,0.7-0.1,1-0.1c-1,0.1-2.8,0.1-5.7-0.5
			c-1.1-0.2-2.5-0.8-3.6-1.2c-1-0.4-1.9-1.2-2.6-2c-1.1-1.5-0.9-3-0.4-4.5c0.6-2,3.2-3.7,4.1-4.1c0.8-0.4,1.8-0.9,1.8-1.2
			s-1.8-0.3-1.8-0.3c-2.9,0.2-5.9,0.5-9.2,1c-1.2,0.2-5.6,1.2-6.7,1.4c1.1,0.9,2.2,1.8,3.2,2.6C140.3,56.4,144.7,60,151.6,60z
			 M117.7,66.1c-1-1.7-2-3.4-3.1-5c-0.2-0.3-0.5-0.7-0.8-1c-0.2-0.2-0.4-0.6-0.6-0.6c-0.3,0-0.4,0.4-0.3,0.6
			c0.2,0.5,0.2,1.2-0.1,1.6c-0.3,0.4-0.9,0.7-1.4,0.6c0,1.4,0.3,3,1.1,4.3c0.6,1.1,1.9,1.7,2.9,2.4c1,0.6,2.1,1.3,3.1,2
			c0.6,0.5,1,1.1,1.5,1.7c0.2,0.2,0.7,0.8,0.5,0.1C120.3,71.9,119.5,69,117.7,66.1z M165.3,56.6c-2.5,2.9-7.7,4.2-11.6,4.5
			c-10,0.9-14.8-4.4-24.3-12c-5-4-7.8-6.1-13.4-11.3c-0.6-0.6-1.5-1.9-2.6-3.3c-0.7-0.8-1-1.5-1.5-1.5c0,0-0.7-0.2-1,0.8l-0.1,0.6
			c-1.1,0-1.9,0.2-2.6,0.8c-0.7,0.5-3.2,3.4-3.2,3.4c-0.7,1.9-0.5,5.4,0.6,5.5c0.4,0,0.6-1.1,0.8-1.9c1.1-4.8,2.1-4.9,2.1-4.9
			c-0.7,0.9-1.2,3.3-1.2,3.3c-0.1,0.7-0.2,1-0.6,2.7s-1,1.6-1,1.6c-0.7,0.1-1.6-0.4-1.8-3.4c-0.2-3.1,2-5.8,2-5.8
			c0.9-1.5,0.9-2.6,0.9-2.6c0.2-1.1-0.3-1.3-1.9-1.6c-1.1-0.2-1.4,1.1-1.4,1.1s-0.8,4.8-0.8,7.3c0,3.2,0.4,6.3,1.2,9.2
			c0,0,0.5,1.9,0.9,2.9c0.3,0.7,0.6,1.4,0.9,2.1c1.4,0.5,5.1,1.7,8.2,1c3.5-0.8,4.2-2.6,5.9-8c0,0,0.5,8-5.3,9.5
			c-3.2,0.9-6.1,0.2-7.8-0.5c0.9,1.7,1.9,3.2,3.1,4.7c0.4,0.1,0.9,0.2,1.3,0.3c0.1,0,0.3,0.1,0.5,0s0.1-0.3,0.1-0.4
			c-0.2-0.5-0.2-1.2,0.1-1.6c0.3-0.4,0.7-0.7,1.2-0.7h0.1c0.9,0,1.3,0.7,1.5,1c0,0,0,0.1,0.1,0.1c0.3,0.4,0.6,0.7,0.8,1.1
			c1.2,1.7,2.3,3.5,3.2,5.1c1,1.6,1.7,3.2,2.1,4.5c0.6,0.3,1.3,0.7,1.9,1c0,0,0,0,0.1,0l0,0c2.6,1.2,5.4,2.1,8.3,2.6
			c0,0.2,1.1,3.8,2.5,5.7c1.4,1.9,2.4,2.3,2.5,1.6c0.1-0.6,0.2-1.2,0.4-1.9c0.1-0.6,0.2-1.3,0.4-1.9c0.1-0.4,0.1-0.9-0.3-1.2
			c-0.1-0.1-0.2-0.2-0.4-0.3c-0.3-0.2-0.5-0.4-0.8-0.6c-0.2-0.1-0.4-0.3-0.7-0.4c-0.2-0.1-0.4-0.1-0.6-0.2c-0.1,0-0.2-0.1-0.2-0.2
			l-0.1-0.1v-0.1c0.9,0.1,1.9,0.1,2.8,0.2h0.1c0,0,1.9,0,2.8-0.1c1-0.1,2.2-0.2,2.2-0.2c9-1.2,16.8-5.9,22.3-12.5
			c5-6.1,3.2-10.8,3.2-10.8S167.9,53.7,165.3,56.6z M110,38.6c0.1-1,1.1-1.7,2.1-1.6c1,0.1,1.7,1.1,1.6,2.1s-1.1,1.7-2.1,1.6
			C110.6,40.5,109.9,39.6,110,38.6z M111.8,53.9c-1.1-0.1-2.4-0.6-3.8-1.1c0,0,5.5,1.1,8.6-1.6C116.6,51.2,115.4,54,111.8,53.9z
			 M150.5,72.8L150.5,72.8c2.9,1.3,7.5,3.3,9.6,3.8c0,0,2.9,0.8,3,0.4s-0.2-0.8-1.1-1.5c-3.1-2.8-0.5-5.9,1.4-9.6
			c1.7-3.3,3-5.3,4.1-7.3C163.1,65.4,157.1,70.1,150.5,72.8z M171.6,39.7c0-5.8-1.4-11.3-4-16.1c-0.2-0.3-1.2-2.5-1.4-2.8
			c-0.1-0.2-0.1-0.2-0.1-0.2c-0.3,0,0,4.6,0.1,5.3c0.2,2.7,0.6,7.6,0.3,9.9c-0.2,2.3,0,3.2-0.8,3.6c-0.4,0.2-3,0.6-4.6,0.8
			c-1.3,0.1-6.2,0.8-8.7,1.4c-2.1,0.5-3.5,1-3.8,1.1c-0.4,0.1-0.9,0.4-0.5,0.6c1.5,1,3.7,1.3,5.3,1.6c2.5,0.4,4.5,0.5,6.8,0.7
			c1.8,0.1,3.8,0.2,5.5,0.8c1.6,0.6,3.6,3.7,2.9,7.3C170.6,48.7,171.6,44.3,171.6,39.7z"/>
		<path class="st3" d="M131.1,4.6c-0.7-0.7-2-2.1-3.6-3.1c0,0-0.4-0.3-0.5-0.1c-0.2,0.2,0.1,0.4,0.1,1.3c0,0.8-0.1,2.2-1,3.1
			C127.8,5.3,129.4,4.9,131.1,4.6z M164.8,29.8c-0.2-1.9-0.3-2.7-0.4-4.1c-0.2-2.1-0.4-3.5-0.5-4.8c-1.1-0.6-2.6-1.4-4.4-1.4
			c-1.4,0-2.2,0.3-3,0.9c-1.6,1.1-2.4,2.7-2.4,2.7c0.1-0.3,0.1-0.5,0.2-0.7c0.4-1,1-2,1.8-2.7c0.4-0.3,1-0.6,1.5-0.8
			c1-0.3,2-0.3,3-0.1c1.1,0.2,2.2,0.5,3.2,1c-0.3-1-0.6-2.1-0.8-2.6c-0.2-0.1-0.5-0.1-0.9-0.3c-0.1,0-0.3-0.1-0.5,0
			c-0.1,0-0.1,0.2-0.1,0.2c0,0.3-0.2,0.6-0.4,0.8c-0.2,0.2-0.5,0.4-0.9,0.4c-0.1,0-0.2,0-0.4-0.1c-0.5-0.2-0.7-0.6-0.9-1.1l0,0
			c0-0.1-0.1-0.3-0.2-0.5c-0.1-0.2-0.1-0.3-0.2-0.5c-0.4-1.3-0.5-1.9-0.7-3.2c0-0.2,0-0.3-0.1-0.5c-3.9-2.9-8.2-4.9-12.6-6
			c0-1.2-0.1-4-0.6-5.9c0,0-0.1-0.6-0.4-0.3c-0.3,0.3-1.9,1.6-2.3,2c-0.4,0.4-1.1,1.2-1,1.7c0,0.3,0,1.1,0,1.7
			c-1.3-0.1-2.5-0.2-3.7-0.2c-5.4,0-10.2,1.2-14.7,3.3c0,0-3.9,1.6-6.3,6.7c0.5-1.1,2.9-3.1,3.9-3.6c2.1-1.1,4.9-1.8,7.3-1.8
			c3.2-0.1,6.1,0.5,9,1.4c8,2.4,13.5,9.2,18.1,15.8c1,1.4,2,2.4,3.1,3.9c1.2,1.6,1.7,2.1,3.1,3.7c0.7,0.8,1,0.6,1.4-1.3l0.3-2.2
			l0.2-1.9c0,0,0.1-1.3-0.6-1.3c0,0-0.6-0.1-0.9,0.8c0-0.1,0-0.2,0-0.3c0.1-0.4,0.3-0.7,0.6-0.8c0.5-0.2,0.9-0.2,1.1,0.3
			c0.2,0.4,0.2,0.7,0.2,1.1l-0.1,1.6l0.8,1.5c0,0,0.6,1.3,0.9,1.2C165.1,33.3,165,31.8,164.8,29.8z M158.1,25.2
			c-0.1,0.9-1,1.6-1.9,1.4c-0.9-0.1-1.6-1-1.4-1.9c0.1-0.9,1-1.6,1.9-1.4C157.6,23.5,158.2,24.3,158.1,25.2z M159.5,20.8
			c-1.3,0-2.6,0.3-2.6,0.3s1-0.9,2.7-0.8c1.1,0.1,2.1,0.5,2.8,0.8C162.3,21.1,160.8,20.8,159.5,20.8z M159.6,15.7
			c0.1,0.3,0.2,0.7,0.3,1c0,0.1,0.1,0.4,0.3,0.5s0.3-0.2,0.3-0.3c0-0.3,0.2-0.8,0.5-0.9c0.3-0.2,0.7-0.2,1,0
			c0.4-0.9,0.6-1.9,0.5-2.9c-0.1-0.8-0.7-1.5-1.2-2.1s-0.5-0.6-1-1.3c-0.2-0.3-0.5-0.6-0.7-0.9c-0.1-0.2-0.6-0.6-0.7-0.2
			c-0.1,0.6-0.2,2,0.1,4.2C159.1,13.9,159.2,14.5,159.6,15.7z M140.5,14.3c-0.3-0.2-0.6-0.3-1-0.5c2,3.6,0.2,6.1-1.3,7.2
			c-0.5,0.4-1.1,0.6-1.6,0.9c0,0-0.5,0.2-0.5,0.4c0,0.2,0.7,0.2,0.7,0.2c1.8,0.1,2.8-0.1,4.6-0.4c1.4-0.2,4.5-1.1,6.4-1.7
			C145.7,18,143.3,15.9,140.5,14.3z M117.3,21.6c-0.8-0.8-1.4-1.5-2-2.5c-1.2-2-0.5-4,0.9-6.2l0.9-1.2c-6.5,4.8-10.6,10.7-12.8,17.6
			c0,0,0,0.1,0.1,0.1c0.2,0.1,1.6-1.1,1.9-1.5c1.2-1.2,2.7-2.9,3.8-4.1c1-1,1.9-2,2.2-2c0.3,0,1.7,1.2,2.5,1.8
			c0.7,0.5,2.6,1.9,4.2,2.8c1.2,0.7,2.1,1.2,2.3,1.3c0.2,0.1,0.6,0.2,0.5-0.1c-0.3-1-1.1-2.2-1.7-3.1
			C119.2,23.6,118.3,22.7,117.3,21.6z M112,37.7c-0.6-0.1-1.2,0.3-1.2,0.9c-0.1,0.6,0.3,1.2,0.9,1.2c0.6,0.1,1.2-0.3,1.2-0.9
			C113,38.4,112.6,37.8,112,37.7z"/>
		<path class="st2" d="M29.6,52.3h-4.5v-2.7H37v2.7h-4.5V65h-2.8V52.3H29.6z"/>
		<path class="st2" d="M40.6,60.2h-1.8v-2.7h1.8v-7.8h7.3c3.4,0,5.5,2.3,5.5,5.3c0,2.2-1.5,4-3.6,4.6l3.8,5.5H50l-3.2-4.8h-3.5V65
			h-2.8L40.6,60.2L40.6,60.2z M43.4,57.5h4.3c2,0,2.9-1.2,2.9-2.6c0-1.4-0.9-2.6-2.9-2.6h-4.3V57.5z"/>
		<path class="st2" d="M56.6,49.7h2.8v8.5c0,2.8,1.8,4.5,3.9,4.5c2.2,0,3.9-1.7,3.9-4.5v-8.5H70v9.1c0,3.6-2.7,6.6-6.8,6.6
			s-6.8-3-6.8-6.6v-9.1C56.4,49.7,56.6,49.7,56.6,49.7z"/>
		<path class="st2" d="M74.1,60.6c1.2,1.2,2.8,2.1,4.6,2.1c2.2,0,3.7-0.8,3.7-2.3c0-3.4-9.9-0.1-9.9-6.4c0-2.7,2.9-4.6,6.4-4.6
			c2.5,0,4.6,0.8,6.1,2.4l-2.1,1.9c-1.4-1.4-2.7-1.8-4.2-1.8c-2.4,0-3.2,1.2-3.2,2.1c0,3.5,9.9,0,9.9,6.4c0,3.2-3.3,5.1-6.8,5.1
			c-2.2,0-4.7-0.8-6.6-2.8L74.1,60.6z"/>
		<path class="st2" d="M91.1,52.3h-4.5v-2.7h11.9v2.7H94V65h-2.8L91.1,52.3L91.1,52.3z"/>
		<g>
			<path class="st4" d="M27.7,33.6H23v-2.8h12.4v2.8h-4.7v13.2h-3V33.6z"/>
			<path class="st4" d="M43.7,45.3L43.7,45.3c-0.9,1.1-2.4,1.8-4.1,1.8c-4.1,0-6.4-3.3-6.4-6.5c0-3,2.5-6.5,6.5-6.5
				c1.8,0,3.2,0.8,3.9,1.8h0.1v-1.5h2.7v12.4h-2.7V45.3z M40,44.6c2.1,0,3.9-1.8,3.9-4s-1.8-4-3.9-4c-2.1,0-3.9,1.8-3.9,4
				C36,42.8,37.8,44.6,40,44.6z"/>
			<path class="st4" d="M49.2,34.4h2.5v1.4h0.1c0.4-1,1.4-1.7,2.4-1.7c0.6,0,1.1,0.2,1.5,0.4l-0.9,2.6c-0.3-0.2-0.7-0.4-1-0.4
				c-1,0-1.8,0.7-1.8,1.9v8.2h-2.7L49.2,34.4L49.2,34.4z"/>
			<path class="st4" d="M59.4,35.9L59.4,35.9c1-1.2,2.4-1.8,4.1-1.8c4.1,0,6.4,3.3,6.4,6.5c0,3-2.5,6.5-6.5,6.5
				c-1.8,0-3.2-0.8-3.9-1.8h-0.1v5.8h-2.7V34.4h2.7V35.9z M63.2,36.6c-2.1,0-3.9,1.8-3.9,4s1.8,4,3.9,4s3.9-1.8,3.9-4
				C67.1,38.4,65.3,36.6,63.2,36.6z"/>
			<path class="st4" d="M77.8,34.1c4.3,0,6.8,3.2,6.8,6.5s-2.5,6.5-6.8,6.5S71,43.9,71,40.6S73.5,34.1,77.8,34.1z M77.8,44.6
				c2.3,0,4-1.8,4-4s-1.7-4-4-4s-4,1.8-4,4S75.5,44.6,77.8,44.6z"/>
			<path class="st4" d="M86.5,34.4h2.7V36h0.1c0.7-1.1,2.1-1.9,3.8-1.9c2.6,0,4.8,2.2,4.8,5.2v7.5h-2.7v-6.9c0-2.2-1.2-3.2-2.9-3.2
				c-1.7,0-3,1.1-3,3.1v6.9h-2.7V34.4H86.5z"/>
		</g>
		<path class="st4" d="M1.9,21.9H0v-2.8h1.9v-6.4h8.5c2.4,0,4.6,1.4,4.6,4.3c0,1.5-0.8,2.7-2,3.2c1.8,0.5,3,1.8,3,3.8
			c0,2.9-2.1,4.6-4.9,4.6H1.9V21.9z M4.9,19.1h5.3c1.3,0,2-0.8,2-1.8c0-0.9-0.7-1.8-2-1.8H4.9V19.1z M4.9,25.9h5.8
			c1.3,0,2.3-0.9,2.3-2s-1-2-2.3-2H4.9V25.9z"/>
		<path class="st4" d="M24,16c4.3,0,6.8,3.2,6.8,6.5S28.3,29,24,29s-6.8-3.2-6.8-6.5S19.7,16,24,16z M24,26.5c2.3,0,4-1.8,4-4
			s-1.7-4-4-4s-4,1.8-4,4S21.7,26.5,24,26.5z"/>
		<path class="st4" d="M32.4,16.3H35v1.6h0.1c0.7-1.1,2.1-1.9,3.8-1.9c2.6,0,4.8,2.2,4.8,5.2v7.5H41v-6.9c0-2.2-1.2-3.2-2.9-3.2
			s-3,1.1-3,3.1v6.9h-2.7C32.4,28.6,32.4,16.3,32.4,16.3z"/>
		<path class="st4" d="M58,26c-1.5,1.9-3.5,3-5.7,3c-4.3,0-6.8-3.2-6.8-6.5S48,16,52.3,16c2.6,0,6.4,2.1,6.4,6.9v0.5H48.5
			c0.2,1.9,1.9,3.2,3.8,3.2c1.4,0,2.7-0.7,3.6-1.9L58,26z M55.6,21.2c-0.6-1.9-2-2.9-3.6-2.9c-1.7,0-3.1,1-3.5,2.9H55.6z"/>
		<path class="st4" d="M61.6,21.4h-1.7v-2.5h1.7v-2.1c0-2.3,1.4-4.5,4.6-4.5c0.6,0,1.5,0.1,2,0.3L67.1,15c-0.4-0.2-0.7-0.2-1.2-0.2
			c-1.1,0-1.7,0.9-1.7,1.8v2.2h2.7v2.5h-2.7v13.9l-2.7,1L61.6,21.4L61.6,21.4z"/>
		<path class="st4" d="M70.6,12.3c0.8,0,1.5,0.7,1.5,1.5s-0.7,1.5-1.5,1.5s-1.5-0.7-1.5-1.5S69.8,12.3,70.6,12.3z M69.3,16.3H72
			v12.4h-2.7V16.3z"/>
		<path class="st4" d="M75.5,25c0.9,1,2.5,1.8,3.9,1.8c1.5,0,2.4-0.9,2.4-1.6c0-0.8-0.6-1.3-1.6-1.4l-1.5-0.3
			c-3.5-0.6-4.4-1.8-4.4-3.5c0-2.1,1.8-4,4.8-4c1.7,0,3.2,0.5,4.9,1.7l-1.5,1.9c-1.3-1.1-2.4-1.4-3.3-1.4c-1.1,0-2.3,0.6-2.3,1.6
			c0,0.7,0.6,1.1,1.6,1.3l2.7,0.5c2.2,0.4,3.3,1.5,3.3,3.3s-1.5,4.2-5.2,4.2c-2.1,0-3.9-0.7-5.6-2.2L75.5,25z"/>
		<path class="st4" d="M86.1,12.7h2.7v5.2h0.1c0.7-1.1,2.1-1.9,3.8-1.9c2.6,0,4.8,2.2,4.8,5.2v7.5h-2.7v-6.9c0-2.2-1.2-3.2-2.9-3.2
			c-1.7,0-3,1.1-3,3.1v6.9h-2.7V12.7H86.1z"/>
		<g>
			<path class="st3" d="M15.6,34.1c-0.5-0.7-1.3-1.2-2.4-1.2c-1.5,0-2.7,1-2.7,2.4c0,1.6,0.9,2.6,2.8,2.6h0.9v2.5
				c-0.2-0.1-0.5-0.1-0.9-0.1c-2.1,0-3.8,1.1-3.8,3.1c0,1.5,1.2,3.1,3.7,3.1c3.3,0,4.4-2.6,4.4-6.4c0-0.8-0.1-1.5-0.1-2.1h4.9v2
				h-1.9v1.1c0,4.6-2.9,8-7.5,8c-3.6,0-6.8-2-6.8-5.6c0-2.1,1.2-3.9,3.5-4.6v-0.1c-1.3-0.4-2.3-1.8-2.3-3.5c0-2.5,2-4.9,5.9-4.9
				c2.2,0,3.9,0.9,4.9,2.3L15.6,34.1z"/>
		</g>
		<polygon class="st4" points="59.3,53.8 56.4,54.8 56.4,34.3 59.3,34.3 		"/>
	</g>
</g>
<g id="Layer_2">
	<g>
		<path class="st5" d="M146.5,47.33c0.8-0.4,1.8-0.9,1.8-1.2s-1.8-0.3-1.8-0.3c-2.9,0.2-5.9,0.5-9.2,1c-1.2,0.2-5.6,1.2-6.7,1.4
			c1.1,0.9,2.2,1.8,3.2,2.6c6.5,5.4,10.9,9,17.8,9c0.7,0,1.4,0,2.1-0.1c0.3,0,0.7-0.1,1-0.1c-1,0.1-2.8,0.1-5.7-0.5
			c-1.1-0.2-2.5-0.8-3.6-1.2c-1-0.4-1.9-1.2-2.6-2c-1.1-1.5-0.9-3-0.4-4.5C143,49.43,145.6,47.73,146.5,47.33z"/>
		<path class="st5" d="M150.5,72.63c2.9,1.3,7.5,3.3,9.6,3.8c0,0,2.9,0.8,3,0.4c0.1-0.4-0.2-0.8-1.1-1.5c-3.1-2.8-0.5-5.9,1.4-9.6
			c1.7-3.3,3-5.3,4.1-7.3C163.1,65.23,157.1,69.93,150.5,72.63z"/>
		<path class="st5" d="M117.7,65.93c-1-1.7-2-3.4-3.1-5c-0.2-0.3-0.5-0.7-0.8-1c-0.2-0.2-0.4-0.6-0.6-0.6c-0.3,0-0.4,0.4-0.3,0.6
			c0.2,0.5,0.2,1.2-0.1,1.6c-0.3,0.4-0.9,0.7-1.4,0.6c0,1.4,0.3,3,1.1,4.3c0.6,1.1,1.9,1.7,2.9,2.4c1,0.6,2.1,1.3,3.1,2
			c0.6,0.5,1,1.1,1.5,1.7c0.2,0.2,0.7,0.8,0.5,0.1C120.3,71.73,119.5,68.83,117.7,65.93z"/>
		<path class="st5" d="M171.6,39.53c0-5.8-1.4-11.3-4-16.1c-0.2-0.3-1.2-2.5-1.4-2.8c-0.1-0.2-0.1-0.2-0.1-0.2c-0.3,0,0,4.6,0.1,5.3
			c0.2,2.7,0.6,7.6,0.3,9.9c-0.2,2.3,0,3.2-0.8,3.6c-0.4,0.2-3,0.6-4.6,0.8c-1.3,0.1-6.2,0.8-8.7,1.4c-2.1,0.5-3.5,1-3.8,1.1
			c-0.4,0.1-0.9,0.4-0.5,0.6c1.5,1,3.7,1.3,5.3,1.6c2.5,0.4,4.5,0.5,6.8,0.7c1.8,0.1,3.8,0.2,5.5,0.8c1.6,0.6,3.6,3.7,2.9,7.3
			C170.6,48.53,171.6,44.13,171.6,39.53z"/>
		<path class="st5" d="M165.3,56.43c-2.5,2.9-7.7,4.2-11.6,4.5c-10,0.9-14.8-4.4-24.3-12c-5-4-7.8-6.1-13.4-11.3
			c-0.6-0.6-1.5-1.9-2.6-3.3c-0.7-0.8-1-1.5-1.5-1.5c0,0-0.7-0.2-1,0.8l-0.1,0.6c-1.1,0-1.9,0.2-2.6,0.8c-0.7,0.5-3.2,3.4-3.2,3.4
			c-0.7,1.9-0.5,5.4,0.6,5.5c0.4,0,0.6-1.1,0.8-1.9c1.1-4.8,2.1-4.9,2.1-4.9c-0.7,0.9-1.2,3.3-1.2,3.3c-0.1,0.7-0.2,1-0.6,2.7
			s-1,1.6-1,1.6c-0.7,0.1-1.6-0.4-1.8-3.4c-0.2-3.1,2-5.8,2-5.8c0.9-1.5,0.9-2.6,0.9-2.6c0.2-1.1-0.3-1.3-1.9-1.6
			c-1.1-0.2-1.4,1.1-1.4,1.1s-0.8,4.8-0.8,7.3c0,3.2,0.4,6.3,1.2,9.2c0,0,0.5,1.9,0.9,2.9c0.3,0.7,0.6,1.4,0.9,2.1
			c1.4,0.5,5.1,1.7,8.2,1c3.5-0.8,4.2-2.6,5.9-8c0,0,0.5,8-5.3,9.5c-3.2,0.9-6.1,0.2-7.8-0.5c0.9,1.7,1.9,3.2,3.1,4.7
			c0.4,0.1,0.9,0.2,1.3,0.3c0.1,0,0.3,0.1,0.5,0c0.2-0.1,0.1-0.3,0.1-0.4c-0.2-0.5-0.2-1.2,0.1-1.6s0.7-0.7,1.2-0.7h0.1
			c0.9,0,1.3,0.7,1.5,1c0,0,0,0.1,0.1,0.1c0.3,0.4,0.6,0.7,0.8,1.1c1.2,1.7,2.3,3.5,3.2,5.1c1,1.6,1.7,3.2,2.1,4.5
			c0.6,0.3,1.3,0.7,1.9,1c0,0,0,0,0.1,0c2.6,1.2,5.4,2.1,8.3,2.6c0,0.2,1.1,3.8,2.5,5.7c1.4,1.9,2.4,2.3,2.5,1.6
			c0.1-0.6,0.2-1.2,0.4-1.9c0.1-0.6,0.2-1.3,0.4-1.9c0.1-0.4,0.1-0.9-0.3-1.2c-0.1-0.1-0.2-0.2-0.4-0.3c-0.3-0.2-0.5-0.4-0.8-0.6
			c-0.2-0.1-0.4-0.3-0.7-0.4c-0.2-0.1-0.4-0.1-0.6-0.2c-0.1,0-0.2-0.1-0.2-0.2l-0.1-0.1v-0.1c0.9,0.1,1.9,0.1,2.8,0.2h0.1
			c0,0,1.9,0,2.8-0.1c1-0.1,2.2-0.2,2.2-0.2c9-1.2,16.8-5.9,22.3-12.5c5-6.1,3.2-10.8,3.2-10.8S167.9,53.53,165.3,56.43z M110,38.43
			c0.1-1,1.1-1.7,2.1-1.6c1,0.1,1.7,1.1,1.6,2.1c-0.1,1-1.1,1.7-2.1,1.6C110.6,40.33,109.9,39.43,110,38.43z M111.8,53.73
			c-1.1-0.1-2.4-0.6-3.8-1.1c0,0,5.5,1.1,8.6-1.6C116.6,51.03,115.4,53.83,111.8,53.73z"/>
		<path class="st5" d="M156.3,25.83c0.6,0.1,1.1-0.3,1.1-0.9c0.1-0.5-0.3-1.1-0.9-1.1c-0.5-0.1-1.1,0.3-1.1,0.9
			C155.4,25.23,155.8,25.73,156.3,25.83z"/>
		<path class="st5" d="M104.4,29.23c0.2,0.1,1.6-1.1,1.9-1.5c1.2-1.2,2.7-2.9,3.8-4.1c1-1,1.9-2,2.2-2c0.3,0,1.7,1.2,2.5,1.8
			c0.7,0.5,2.6,1.9,4.2,2.8c1.2,0.7,2.1,1.2,2.3,1.3c0.2,0.1,0.6,0.2,0.5-0.1c-0.3-1-1.1-2.2-1.7-3.1c-0.9-0.9-1.8-1.8-2.8-2.9
			c-0.8-0.8-1.4-1.5-2-2.5c-1.2-2-0.5-4,0.9-6.2l0.9-1.2c-6.5,4.8-10.6,10.7-12.8,17.6C104.3,29.13,104.3,29.23,104.4,29.23z"/>
		<path class="st5" d="M120,11.63c2.1-1.1,4.9-1.8,7.3-1.8c3.2-0.1,6.1,0.5,9,1.4c8,2.4,13.5,9.2,18.1,15.8c1,1.4,2,2.4,3.1,3.9
			c1.2,1.6,1.7,2.1,3.1,3.7c0.7,0.8,1,0.6,1.4-1.3l0.3-2.2l0.2-1.9c0,0,0.1-1.3-0.6-1.3c0,0-0.6-0.1-0.9,0.8c0-0.1,0-0.2,0-0.3
			c0.1-0.4,0.3-0.7,0.6-0.8c0.5-0.2,0.9-0.2,1.1,0.3c0.2,0.4,0.2,0.7,0.2,1.1l-0.1,1.6l0.8,1.5c0,0,0.6,1.3,0.9,1.2
			c0.6-0.2,0.5-1.7,0.3-3.7c-0.2-1.9-0.3-2.7-0.4-4.1c-0.2-2.1-0.4-3.5-0.5-4.8c-1.1-0.6-2.6-1.4-4.4-1.4c-1.4,0-2.2,0.3-3,0.9
			c-1.6,1.1-2.4,2.7-2.4,2.7c0.1-0.3,0.1-0.5,0.2-0.7c0.4-1,1-2,1.8-2.7c0.4-0.3,1-0.6,1.5-0.8c1-0.3,2-0.3,3-0.1
			c1.1,0.2,2.2,0.5,3.2,1c-0.3-1-0.6-2.1-0.8-2.6c-0.2-0.1-0.5-0.1-0.9-0.3c-0.1,0-0.3-0.1-0.5,0c-0.1,0-0.1,0.2-0.1,0.2
			c0,0.3-0.2,0.6-0.4,0.8c-0.2,0.2-0.5,0.4-0.9,0.4c-0.1,0-0.2,0-0.4-0.1c-0.5-0.2-0.7-0.6-0.9-1.1c0-0.1-0.1-0.3-0.2-0.5
			c-0.1-0.2-0.1-0.3-0.2-0.5c-0.4-1.3-0.5-1.9-0.7-3.2c0-0.2,0-0.3-0.1-0.5c-3.9-2.9-8.2-4.9-12.6-6c0-1.2-0.1-4-0.6-5.9
			c0,0-0.1-0.6-0.4-0.3c-0.3,0.3-1.9,1.6-2.3,2c-0.4,0.4-1.1,1.2-1,1.7c0,0.3,0,1.1,0,1.7c-1.3-0.1-2.5-0.2-3.7-0.2
			c-5.4,0-10.2,1.2-14.7,3.3c0,0-3.9,1.6-6.3,6.7C116.6,14.13,119,12.13,120,11.63z M159.6,20.13c1.1,0.1,2.1,0.5,2.8,0.8
			c-0.1,0-1.6-0.3-2.9-0.3s-2.6,0.3-2.6,0.3S157.9,20.03,159.6,20.13z M154.8,24.53c0.1-0.9,1-1.6,1.9-1.4c0.9,0.2,1.5,1,1.4,1.9
			c-0.1,0.9-1,1.6-1.9,1.4C155.3,26.33,154.6,25.43,154.8,24.53z"/>
		<path class="st5" d="M140.5,14.13c-0.3-0.2-0.6-0.3-1-0.5c2,3.6,0.2,6.1-1.3,7.2c-0.5,0.4-1.1,0.6-1.6,0.9c0,0-0.5,0.2-0.5,0.4
			s0.7,0.2,0.7,0.2c1.8,0.1,2.8-0.1,4.6-0.4c1.4-0.2,4.5-1.1,6.4-1.7C145.7,17.83,143.3,15.73,140.5,14.13z"/>
		<path class="st5" d="M159.6,15.53c0.1,0.3,0.2,0.7,0.3,1c0,0.1,0.1,0.4,0.3,0.5c0.2,0.1,0.3-0.2,0.3-0.3c0-0.3,0.2-0.8,0.5-0.9
			c0.3-0.2,0.7-0.2,1,0c0.4-0.9,0.6-1.9,0.5-2.9c-0.1-0.8-0.7-1.5-1.2-2.1c-0.5-0.6-0.5-0.6-1-1.3c-0.2-0.3-0.5-0.6-0.7-0.9
			c-0.1-0.2-0.6-0.6-0.7-0.2c-0.1,0.6-0.2,2,0.1,4.2C159.1,13.73,159.2,14.33,159.6,15.53z"/>
		<path class="st5" d="M131.1,4.43c-0.7-0.7-2-2.1-3.6-3.1c0,0-0.4-0.3-0.5-0.1c-0.2,0.2,0.1,0.4,0.1,1.3c0,0.8-0.1,2.2-1,3.1
			C127.8,5.13,129.4,4.73,131.1,4.43z"/>
		<path class="st5" d="M111.7,39.63c0.6,0.1,1.2-0.3,1.2-0.9c0.1-0.5-0.3-1.1-0.9-1.2c-0.6-0.1-1.2,0.3-1.2,0.9
			C110.7,39.03,111.1,39.63,111.7,39.63z"/>
		<polygon class="st5" points="25.1,52.13 29.6,52.13 29.7,52.13 29.7,64.83 32.5,64.83 32.5,52.13 37,52.13 37,49.43 25.1,49.43 		
			"/>
		<path class="st5" d="M53.4,54.83c0-3-2.1-5.3-5.5-5.3h-7.3v7.8h-1.8v2.7h1.8l-0.1,4.8h2.8v-4.7h3.5l3.2,4.8h3.6l-3.8-5.5
			C51.9,58.83,53.4,57.03,53.4,54.83z M43.4,57.33v-5.2h4.3c2,0,2.9,1.2,2.9,2.6c0,1.4-0.9,2.6-2.9,2.6H43.4z"/>
		<path class="st5" d="M67.2,58.03c0,2.8-1.7,4.5-3.9,4.5c-2.1,0-3.9-1.7-3.9-4.5v-7.1v-1.4v-4.4h0.1c0.7,1,2.1,1.8,3.9,1.8
			c4,0,6.5-3.5,6.5-6.5c0-3.01-2.04-6.11-5.7-6.46V21.13h2.7v-2.5h-2.7v-2.2c0-0.9,0.6-1.8,1.7-1.8c0.5,0,0.8,0,1.2,0.2l1.1-2.4
			c-0.5-0.2-1.4-0.3-2-0.3c-3.2,0-4.6,2.2-4.6,4.5v2.1h-1.7v2.5h1.7l-0.09,13.05c-0.82,0.29-1.54,0.76-2.11,1.45v-1.5h-0.1v-0.1
			h-2.9v15.4v5.1v4c0,3.6,2.7,6.6,6.8,6.6c4.1,0,6.8-3,6.8-6.6v-9.1h-2.8V58.03z M63.2,36.43c2.1,0,3.9,1.8,3.9,4s-1.8,4-3.9,4
			c-2.1,0-3.9-1.8-3.9-4S61.1,36.43,63.2,36.43z"/>
		<path class="st5" d="M75.5,53.83c0-0.9,0.8-2.1,3.2-2.1c1.5,0,2.8,0.4,4.2,1.8l2.1-1.9c-1.5-1.6-3.6-2.4-6.1-2.4
			c-3.5,0-6.4,1.9-6.4,4.6c0,6.3,9.9,3,9.9,6.4c0,1.5-1.5,2.3-3.7,2.3c-1.8,0-3.4-0.9-4.6-2.1l-2.1,2.1c1.9,2,4.4,2.8,6.6,2.8
			c3.5,0,6.8-1.9,6.8-5.1C85.4,53.83,75.5,57.33,75.5,53.83z"/>
		<polygon class="st5" points="86.6,52.13 91.1,52.13 91.2,64.83 94,64.83 94,52.13 98.5,52.13 98.5,49.43 86.6,49.43 		"/>
		<polygon class="st5" points="27.7,46.63 30.7,46.63 30.7,33.43 35.4,33.43 35.4,30.63 23,30.63 23,33.43 27.7,33.43 		"/>
		<path class="st5" d="M46.4,46.63v-12.4h-2.7v1.5h-0.1c-0.7-1-2.1-1.8-3.9-1.8c-4,0-6.5,3.5-6.5,6.5c0,3.2,2.3,6.5,6.4,6.5
			c1.7,0,3.2-0.7,4.1-1.8v1.5H46.4z M40,44.43c-2.2,0-4-1.8-3.9-4c0-2.2,1.8-4,3.9-4s3.9,1.8,3.9,4S42.1,44.43,40,44.43z"/>
		<path class="st5" d="M51.8,35.63h-0.1v-1.4h-2.5l0.1,12.4H52v-8.2c0-1.2,0.8-1.9,1.8-1.9c0.3,0,0.7,0.2,1,0.4l0.9-2.6
			c-0.4-0.2-0.9-0.4-1.5-0.4C53.2,33.93,52.2,34.63,51.8,35.63z"/>
		<path class="st5" d="M77.8,46.93c4.3,0,6.8-3.2,6.8-6.5s-2.5-6.5-6.8-6.5c-4.3,0-6.8,3.2-6.8,6.5S73.5,46.93,77.8,46.93z
			 M77.8,36.43c2.3,0,4,1.8,4,4s-1.7,4-4,4c-2.3,0-4-1.8-4-4S75.5,36.43,77.8,36.43z"/>
		<path class="st5" d="M97.9,46.63v-7.5c0-3-2.2-5.2-4.8-5.2c-1.7,0-3.1,0.8-3.8,1.9h-0.1v-1.6h-2.6v12.3h2.7v-6.9
			c0-2,1.3-3.1,3-3.1c1.7,0,2.9,1,2.9,3.2v6.9H97.9z"/>
		<path class="st5" d="M11.1,28.43c2.8,0,4.9-1.7,4.9-4.6c0-2-1.2-3.3-3-3.8c1.2-0.5,2-1.7,2-3.2c0-2.9-2.2-4.3-4.6-4.3H1.9v6.4H0
			v2.8h1.9v6.7H11.1z M4.9,15.33h5.3c1.3,0,2,0.9,2,1.8c0,1-0.7,1.8-2,1.8H4.9V15.33z M4.9,21.73h5.8c1.3,0,2.3,0.9,2.3,2
			c0,1.1-1,2-2.3,2H4.9V21.73z"/>
		<path class="st5" d="M24,28.83c4.3,0,6.8-3.2,6.8-6.5s-2.5-6.5-6.8-6.5s-6.8,3.2-6.8,6.5S19.7,28.83,24,28.83z M24,18.33
			c2.3,0,4,1.8,4,4s-1.7,4-4,4s-4-1.8-4-4S21.7,18.33,24,18.33z"/>
		<path class="st5" d="M35.1,21.53c0-2,1.3-3.1,3-3.1c1.7,0,2.9,1,2.9,3.2v6.9h2.7v-7.5c0-3-2.2-5.2-4.8-5.2c-1.7,0-3.1,0.8-3.8,1.9
			H35v-1.6h-2.6v12.3h2.7V21.53z"/>
		<path class="st5" d="M52.3,28.83c2.2,0,4.2-1.1,5.7-3l-2.1-1.3c-0.9,1.2-2.2,1.9-3.6,1.9c-1.9,0-3.6-1.3-3.8-3.2h10.2v-0.5
			c0-4.8-3.8-6.9-6.4-6.9c-4.3,0-6.8,3.2-6.8,6.5S48,28.83,52.3,28.83z M52,18.13c1.6,0,3,1,3.6,2.9h-7.1
			C48.9,19.13,50.3,18.13,52,18.13z"/>
		<rect x="69.3" y="16.13" class="st5" width="2.7" height="12.4"/>
		<circle class="st5" cx="70.6" cy="13.63" r="1.5"/>
		<path class="st5" d="M79.4,26.63c-1.4,0-3-0.8-3.9-1.8l-1.8,1.9c1.7,1.5,3.5,2.2,5.6,2.2c3.7,0,5.2-2.4,5.2-4.2
			c0-1.8-1.1-2.9-3.3-3.3l-2.7-0.5c-1-0.2-1.6-0.6-1.6-1.3c0-1,1.2-1.6,2.3-1.6c0.9,0,2,0.3,3.3,1.4l1.5-1.9
			c-1.7-1.2-3.2-1.7-4.9-1.7c-3,0-4.8,1.9-4.8,4c0,1.7,0.9,2.9,4.4,3.5l1.5,0.3c1,0.1,1.6,0.6,1.6,1.4
			C81.8,25.73,80.9,26.63,79.4,26.63z"/>
		<path class="st5" d="M88.9,21.53c0-2,1.3-3.1,3-3.1s2.9,1,2.9,3.2v6.9h2.7v-7.5c0-3-2.2-5.2-4.8-5.2c-1.7,0-3.1,0.8-3.8,1.9h-0.1
			v-5.2h-2.6v15.9h2.7V21.53z"/>
		<path class="st5" d="M17.6,39.93c0,3.8-1.1,6.4-4.4,6.4c-2.5,0-3.7-1.6-3.7-3.1c0-2,1.7-3.1,3.8-3.1c0.4,0,0.7,0,0.9,0.1v-2.5
			h-0.9c-1.9,0-2.8-1-2.8-2.6c0-1.4,1.2-2.4,2.7-2.4c1.1,0,1.9,0.5,2.4,1.2l2.6-1.4c-1-1.4-2.7-2.3-4.9-2.3c-3.9,0-5.9,2.4-5.9,4.9
			c0,1.7,1,3.1,2.3,3.5v0.1c-2.3,0.7-3.5,2.5-3.5,4.6c0,3.6,3.2,5.6,6.8,5.6c4.6,0,7.5-3.4,7.5-8v-1.1h1.9v-2h-4.9
			C17.5,38.43,17.6,39.13,17.6,39.93z"/>
	</g>
</g>
</svg>
